<svg width="32" height="32" viewBox="0 0 32 32" fill="none" xmlns="http://www.w3.org/2000/svg">
<rect width="32" height="32" rx="16" fill="white"/>
<path d="M7 6.70168C7 5.76187 7.76187 5 8.70168 5H17.9492C18.889 5 19.6509 5.76187 19.6509 6.70168V25.342C19.6509 26.2818 18.889 27.0437 17.9492 27.0437H8.70168C7.76187 27.0437 7 26.2818 7 25.342V6.70168Z" fill="#2A7EBA"/>
<path d="M7 8.33325H19.6509V9.46232H7V8.33325Z" fill="white"/>
<path d="M11.8247 6.82313C11.8247 6.58817 12.0152 6.39771 12.2501 6.39771H14.5084C14.7434 6.39771 14.9338 6.58817 14.9338 6.82313V6.83253C14.9338 7.06748 14.7434 7.25795 14.5084 7.25795H12.2501C12.0152 7.25795 11.8247 7.06748 11.8247 6.83253V6.82313Z" fill="white"/>
<path d="M12.307 25.4799C12.307 25.2449 12.4975 25.0544 12.7324 25.0544H14.0258C14.2608 25.0544 14.4512 25.2449 14.4512 25.4799V25.4893C14.4512 25.7242 14.2608 25.9147 14.0258 25.9147H12.7324C12.4975 25.9147 12.307 25.7242 12.307 25.4893V25.4799Z" fill="white"/>
<path d="M7 22.7427H19.6509V23.9255H7V22.7427Z" fill="white"/>
<path d="M28.1743 16.1023C28.1743 19.8585 25.1383 22.9036 21.3932 22.9036C17.6481 22.9036 14.6121 19.8585 14.6121 16.1023C14.6121 12.3461 17.6481 9.30103 21.3932 9.30103C25.1383 9.30103 28.1743 12.3461 28.1743 16.1023Z" fill="white"/>
<g clip-path="url(#clip0_788_1740)">
<path fill-rule="evenodd" clip-rule="evenodd" d="M18.1248 15.5214V15.8121H21.1223V13.7775C21.1223 13.6253 20.8965 13.6655 20.5056 13.6348C20.226 13.613 20.0421 13.5929 19.7879 13.5576C19.557 13.5256 19.349 13.487 19.115 13.4353C18.9588 13.4007 18.5928 13.3204 18.486 13.2688C18.3317 13.9346 18.1248 14.7081 18.1248 15.5214Z" fill="#2A7EBA"/>
<path fill-rule="evenodd" clip-rule="evenodd" d="M18.1248 16.684C18.1248 17.4973 18.3317 18.2707 18.486 18.9366C18.9394 18.7176 20.5457 18.5369 21.1223 18.5369V16.3933H18.1248V16.684Z" fill="#2A7EBA"/>
<path fill-rule="evenodd" clip-rule="evenodd" d="M21.7002 13.6685V15.8121H24.6977C24.6623 15.3835 24.6447 14.9098 24.5693 14.488C24.4877 14.0319 24.3953 13.6784 24.3004 13.2688C23.8648 13.4791 22.2235 13.6685 21.7002 13.6685Z" fill="#2A7EBA"/>
<path fill-rule="evenodd" clip-rule="evenodd" d="M21.7002 18.5369C22.259 18.5369 23.8595 18.7237 24.3004 18.9366C24.5879 17.6954 24.5949 17.6375 24.6977 16.3933H21.7002V18.5369Z" fill="#2A7EBA"/>
<path fill-rule="evenodd" clip-rule="evenodd" d="M24.8782 19.1182C25.0642 19.1618 25.3698 19.3025 25.5459 19.3911C25.7708 19.5043 25.9711 19.6256 26.1783 19.7358C26.3024 19.4999 26.475 19.2799 26.6101 19.0441C26.8633 18.6023 27.1271 17.9272 27.2291 17.4141C27.2864 17.1252 27.37 16.693 27.37 16.3933H25.2754L25.1366 17.8159C25.0978 18.0466 25.0619 18.2274 25.0138 18.4554C24.9747 18.6414 24.8782 18.8984 24.8782 19.1182Z" fill="#2A7EBA"/>
<path fill-rule="evenodd" clip-rule="evenodd" d="M15.4161 15.812H17.5469C17.5469 15.2069 17.7034 13.6282 17.9442 13.1234C17.73 13.0094 17.4998 12.9372 17.27 12.8207C17.0273 12.6976 16.8329 12.5892 16.6079 12.4695C16.581 12.5708 16.4616 12.7036 16.3981 12.8033C15.8027 13.7397 15.5141 14.6283 15.4161 15.812Z" fill="#2A7EBA"/>
<path fill-rule="evenodd" clip-rule="evenodd" d="M16.6079 19.7358C16.8255 19.62 17.0105 19.5158 17.2459 19.3967C17.4831 19.2768 17.7238 19.1993 17.9442 19.0819C17.6977 18.5652 17.5469 16.9633 17.5469 16.3933H15.4161C15.4906 17.2937 15.738 18.3017 16.1673 19.0165C16.2443 19.1447 16.3052 19.2527 16.3841 19.3797C16.4488 19.4836 16.5807 19.6334 16.6079 19.7358Z" fill="#2A7EBA"/>
<path fill-rule="evenodd" clip-rule="evenodd" d="M24.8782 13.0871L25.1366 14.3894C25.1716 14.5979 25.1849 14.8322 25.2192 15.0692C25.2575 15.3326 25.2204 15.5745 25.2754 15.812H27.37C27.37 14.9997 26.9992 13.8638 26.6232 13.1844C26.4788 12.9234 26.3088 12.7177 26.1783 12.4695C25.825 12.6575 25.2946 12.9895 24.8782 13.0871Z" fill="#2A7EBA"/>
<path fill-rule="evenodd" clip-rule="evenodd" d="M21.1222 21.9884V19.1182C20.2841 19.1182 19.6869 19.2406 18.9552 19.4089C18.6906 19.4699 18.5073 19.2755 19.0271 20.2813C19.2294 20.6727 19.5628 21.1333 19.8664 21.4351C19.9742 21.542 20.3064 21.8005 20.4509 21.8645C20.5841 21.9234 20.6915 21.979 20.8017 22.0209C20.9127 22.0631 21.1222 22.1609 21.1222 21.9884Z" fill="#2A7EBA"/>
<path fill-rule="evenodd" clip-rule="evenodd" d="M21.1223 13.0873V10.2171C21.1223 9.87765 20.0945 10.5486 19.8847 10.7522C19.3402 11.2803 19.0219 11.8848 18.7291 12.5753C18.6501 12.7616 18.668 12.7362 18.8954 12.7833C19.6977 12.9494 20.1329 13.0873 21.1223 13.0873Z" fill="#2A7EBA"/>
<path fill-rule="evenodd" clip-rule="evenodd" d="M21.7002 13.0872C22.15 13.0872 23.7357 12.9093 24.1199 12.7238L23.7352 11.8755C23.5371 11.4824 23.2392 11.096 22.9373 10.789C22.6049 10.4509 22.1853 10.2217 21.7002 10.1079V13.0872Z" fill="#2A7EBA"/>
<path fill-rule="evenodd" clip-rule="evenodd" d="M21.7002 22.0974C22.0583 22.0135 22.2967 21.9216 22.5569 21.724C23.544 20.9737 23.6673 20.4305 24.1199 19.4815C23.735 19.2957 22.1378 19.1182 21.7002 19.1182V22.0974Z" fill="#2A7EBA"/>
<path fill-rule="evenodd" clip-rule="evenodd" d="M17.0051 20.1719C17.1771 20.4303 17.7593 20.8946 18.0448 21.088C18.2722 21.2421 19.0619 21.7099 19.3526 21.7342C19.1744 21.4666 18.9766 21.3102 18.659 20.7971C18.2864 20.1955 18.3435 20.1221 18.1247 19.6633C17.7641 19.7479 17.31 20.0096 17.0051 20.1719Z" fill="#2A7EBA"/>
<path fill-rule="evenodd" clip-rule="evenodd" d="M17.0051 12.0334C17.093 12.0803 17.174 12.1134 17.2695 12.1671C17.5387 12.3188 17.7901 12.4637 18.1247 12.5421C18.21 12.3634 18.2644 12.1649 18.3532 11.9727C18.5322 11.5856 18.7366 11.2769 18.9762 10.9282C19.0883 10.765 19.2528 10.621 19.3526 10.4712C18.8429 10.5139 17.9171 11.2156 17.495 11.5453C17.3339 11.671 17.1102 11.8756 17.0051 12.0334Z" fill="#2A7EBA"/>
<path fill-rule="evenodd" clip-rule="evenodd" d="M24.6615 12.5421C24.907 12.5215 25.5591 12.1516 25.7811 12.0334C25.4577 11.5476 24.1359 10.6273 23.4697 10.4712C23.5029 10.5959 23.7004 10.7681 23.8162 10.9218C23.9341 11.078 24.044 11.2588 24.1492 11.4224C24.2813 11.6278 24.6036 12.2922 24.6615 12.5421Z" fill="#2A7EBA"/>
<path fill-rule="evenodd" clip-rule="evenodd" d="M23.4697 21.7342C24.1359 21.5781 25.4577 20.6578 25.7811 20.1719C25.6038 20.0776 25.4583 19.9843 25.2636 19.8932C25.1517 19.8408 24.7638 19.6719 24.6615 19.6633C24.5567 20.1159 24.1122 20.8703 23.8314 21.2624C23.7708 21.3471 23.7158 21.3957 23.6503 21.4799C23.5738 21.5778 23.5013 21.615 23.4697 21.7342Z" fill="#2A7EBA"/>
</g>
<g clip-path="url(#clip1_788_1740)">
<path fill-rule="evenodd" clip-rule="evenodd" d="M8.4613 18.3487C8.58984 18.5939 8.83901 18.9887 8.99128 19.2658C9.03874 19.3536 9.2978 19.7782 9.31164 19.8281C9.36899 19.8241 9.46193 19.7563 9.51137 19.7264C9.76845 19.5689 9.65771 19.5868 10.0493 19.6785C10.158 19.7045 10.2688 19.7284 10.3914 19.7483C11.1606 19.8779 11.7658 19.8859 12.4816 19.5111C13.0076 19.2339 13.6306 18.6996 14.1249 18.3587C14.4789 18.1154 14.5086 18.1194 14.3998 17.936C14.3781 17.9001 14.384 17.9101 14.3583 17.8802L14.3187 17.8363C14.3168 17.8343 14.3088 17.8263 14.3049 17.8243C14.0023 17.5452 13.4704 17.8463 13.2192 17.9978C13.1105 18.0616 13.0175 18.1314 12.9127 18.2012C12.8831 18.2211 12.8672 18.2331 12.8395 18.253C12.8237 18.265 12.8178 18.267 12.8 18.2809C12.6537 18.3926 12.6833 18.566 11.916 18.7594C11.7618 18.7993 11.1745 18.9229 11.0262 18.887V18.8172C11.0934 18.7833 11.3604 18.7634 11.4533 18.7494C11.7618 18.7076 12.2423 18.6119 12.5093 18.4444C12.5429 18.4225 12.5489 18.4125 12.5924 18.3886C12.4183 17.6369 10.9451 17.9061 10.8066 17.8503C10.5674 17.7526 10.4448 17.615 9.984 17.615C9.58652 17.615 9.24836 17.8203 8.96557 17.9998L8.63335 18.2311C8.57007 18.2769 8.52854 18.3108 8.4613 18.3487Z" fill="#5CD400"/>
<path fill-rule="evenodd" clip-rule="evenodd" d="M11.7678 14.9992L11.7816 15.3182C11.7796 15.3561 11.6373 15.6093 11.5997 15.6611C11.5918 15.6751 11.5839 15.6831 11.5759 15.691C11.5463 15.5594 11.6906 15.069 11.2477 14.4708C11.1547 14.3432 11.0519 14.2436 10.9412 14.1299C10.8897 14.0781 10.6505 13.8368 10.5733 13.8368C10.4784 13.8368 10.4784 13.9226 10.4764 13.9604C10.4586 14.3293 10.4586 14.5586 10.5714 14.9035C10.7988 15.5913 11.3367 15.7169 11.3999 15.7708C11.4217 15.7887 11.4711 15.8804 11.4751 15.9024C11.485 15.9403 11.479 16.0718 11.479 16.1197C11.479 16.2632 11.479 16.4068 11.479 16.5483C11.4415 16.5224 11.305 16.3869 11.2694 16.345C11.2319 16.2991 11.2338 16.2513 11.22 16.1895C11.0717 15.5654 10.7098 15.2245 10.1403 14.9394C9.78826 14.7639 9.66566 14.6902 9.81397 15.2125C9.94647 15.6811 10.1462 16.0459 10.5595 16.2872C10.6841 16.3589 10.9273 16.4526 11.1231 16.4526C11.1943 16.5882 11.479 16.7836 11.479 16.8534V17.3239C11.1963 17.3239 10.7592 17.5791 10.7256 17.7107C10.868 17.7446 10.6801 17.7665 11.0262 17.7665C11.4395 17.7665 11.8449 17.7287 12.2266 17.8842C12.3037 17.9161 12.3136 17.946 12.3749 17.9101C12.4184 17.8822 12.4797 17.8343 12.5232 17.8224C12.4777 17.6509 12.0328 17.3239 11.6847 17.3239V16.2712C11.6847 16.2274 11.7638 16.2054 11.8528 16.1496C11.9734 16.0738 11.9477 16.1197 12.098 16.1197C12.7447 16.1197 13.0571 15.8665 13.4249 15.4936L13.5831 15.3222C13.6563 15.2345 13.7315 15.1886 13.7315 15.1088C13.7315 14.9932 13.5812 14.9992 13.415 14.9992C12.0209 14.9992 11.92 15.8625 11.7974 15.9542C11.7638 15.9781 11.7223 15.9981 11.6847 16.024C11.6847 15.8286 11.7025 15.8884 11.8192 15.6731C12.0506 15.2404 11.9438 15.5335 12.45 15.1049C12.5034 15.061 12.5232 15.0251 12.5667 14.9753C12.8475 14.6583 12.9602 14.1698 13.0373 13.7451C13.0532 13.6674 13.0176 13.6016 12.9484 13.6016C12.806 13.6016 12.3294 13.9565 12.1771 14.11C11.9497 14.3373 11.7678 14.6622 11.7678 14.9992Z" fill="#5CD400"/>
<path fill-rule="evenodd" clip-rule="evenodd" d="M7.43103 18.6798C7.43103 18.7516 7.58528 18.9868 7.63472 19.0706C7.66042 19.1144 7.68218 19.1483 7.70591 19.1922L8.40002 20.3884C8.56415 20.6636 8.48901 20.6755 8.92011 20.4163C9.35714 20.1512 9.4224 20.1771 9.30177 19.9757L8.75004 19.0247C8.71445 18.9649 8.6828 18.913 8.64919 18.8512L8.29916 18.2471C8.226 18.1335 8.11723 18.2312 8.00254 18.301C7.92937 18.3428 7.87004 18.3767 7.80281 18.4186C7.71777 18.4704 7.43103 18.614 7.43103 18.6798Z" fill="#5CD400"/>
<path fill-rule="evenodd" clip-rule="evenodd" d="M12.4263 17.9739C12.4401 18.0237 12.448 18.0138 12.4836 18.0417C12.5133 18.0656 12.5291 18.0815 12.5509 18.1114C12.5904 18.1653 12.628 18.2151 12.6458 18.2929C12.7051 18.2769 12.6576 18.2769 12.7447 18.2111C12.7822 18.1832 12.8099 18.1653 12.8495 18.1374L13.2825 17.8562C13.3458 17.8184 13.4763 17.7725 13.5119 17.7247C13.2489 17.5851 13.065 17.631 12.7882 17.7705L12.4263 17.9739Z" fill="#5CD400"/>
<path fill-rule="evenodd" clip-rule="evenodd" d="M10.7444 14.2723C10.7558 14.2696 10.7672 14.2767 10.7699 14.2881C10.8339 14.5589 11.1039 15.2415 11.5841 15.7918L11.5893 15.7978V17.4915H11.5468V16.7238C11.443 16.6418 11.2286 16.468 11.1436 16.3827C11.1233 16.3624 11.0804 16.3233 11.0219 16.2699C11.0038 16.2534 10.9843 16.2356 10.9635 16.2166C10.8756 16.1362 10.7656 16.0347 10.651 15.9237C10.4221 15.7023 10.1725 15.4414 10.0417 15.2336C10.0355 15.2237 10.0385 15.2106 10.0484 15.2043C10.0583 15.198 10.0715 15.201 10.0777 15.211C10.2055 15.4138 10.4515 15.6716 10.6805 15.8932C10.7948 16.0037 10.9044 16.1049 10.9922 16.1852C11.0126 16.2038 11.0318 16.2213 11.0496 16.2376C11.1085 16.2914 11.1527 16.3316 11.1737 16.3527C11.2501 16.4293 11.4365 16.5816 11.5468 16.6695V15.8138C11.0648 15.2587 10.7936 14.5736 10.7285 14.2979C10.7258 14.2865 10.7329 14.275 10.7444 14.2723Z" fill="white"/>
<path fill-rule="evenodd" clip-rule="evenodd" d="M12.7438 14.0163C12.7534 14.0231 12.7557 14.0364 12.749 14.046C12.6449 14.1936 12.4823 14.4279 12.3329 14.6512C12.183 14.8751 12.0474 15.0864 11.9965 15.1886L11.9954 15.1908L11.5893 15.8122V16.1333L11.8623 15.9911L11.8788 15.9828C11.8941 15.9683 11.9219 15.9479 11.958 15.9238C11.9969 15.898 12.047 15.8667 12.1051 15.832C12.2214 15.7626 12.3707 15.6791 12.5289 15.5961C12.6063 15.5555 12.6861 15.5149 12.7653 15.4762C13.0002 15.3581 13.2293 15.2593 13.395 15.2232L13.4041 15.2647C13.2601 15.2961 13.026 15.396 12.7839 15.5144C12.7339 15.5396 12.6835 15.5657 12.6333 15.5923C12.3485 15.7433 12.0711 15.9105 11.9027 16.0183L11.9008 16.0195L11.8816 16.029L11.8814 16.0291L11.5893 16.1813V17.4843C11.5893 17.496 11.5798 17.5055 11.568 17.5055C11.5563 17.5055 11.5468 17.496 11.5468 17.4843V15.7995L11.9589 15.1685C12.0118 15.0629 12.1487 14.8499 12.2975 14.6276C12.4472 14.4039 12.61 14.1692 12.7142 14.0215C12.721 14.0119 12.7342 14.0096 12.7438 14.0163Z" fill="white"/>
</g>
<defs>
<clipPath id="clip0_788_1740">
<rect width="11.954" height="11.9896" fill="white" transform="translate(15.4161 10.1079)"/>
</clipPath>
<clipPath id="clip1_788_1740">
<rect width="7.02442" height="7.00211" fill="white" transform="translate(7.43091 13.6016)"/>
</clipPath>
</defs>
</svg>
