<svg width="65" height="50" viewBox="0 0 65 50" fill="none" xmlns="http://www.w3.org/2000/svg">
<g clip-path="url(#clip0_533_7207)">
<path d="M5.22422 49.1355C5.36541 48.9943 5.50661 48.7825 5.57721 48.6413C5.6478 48.4295 5.6478 48.2177 5.6478 48.0059V44.4054C5.6478 44.2642 5.6478 44.0525 5.7184 43.8407C5.7184 43.6995 5.7184 43.5583 5.7184 43.3465C5.7184 43.5583 5.6478 43.6995 5.57721 43.9113C5.50661 44.1231 5.50661 44.2642 5.43601 44.476L3.95346 48.6413C3.95346 48.7119 3.95346 48.7119 3.95346 48.7825C3.95346 48.7825 3.95346 48.8531 3.95346 48.9237C3.95346 48.9943 3.95346 48.9943 3.95346 48.9943C3.95346 49.0649 3.95346 49.0649 3.95346 49.1355H2.8945C2.8945 49.0649 2.9651 49.0649 2.9651 48.9943C2.9651 48.9943 2.9651 48.9943 2.9651 48.9237C2.9651 48.8531 2.9651 48.7825 2.9651 48.7825C2.8945 48.7119 2.8945 48.7119 2.8945 48.6413L1.48255 44.476C1.41195 44.3348 1.34135 44.1231 1.27076 43.9819C1.20016 43.7701 1.20016 43.5583 1.12956 43.3465C1.12956 43.4877 1.20016 43.6995 1.20016 43.8407C1.20016 44.0525 1.20016 44.1936 1.20016 44.4054V48.0059C1.20016 48.2177 1.27076 48.4295 1.34135 48.6413C1.41195 48.7825 1.55315 48.9943 1.69434 49.1355H0C0.141195 48.9943 0.28239 48.7825 0.352988 48.6413C0.423585 48.4295 0.423585 48.2177 0.423585 48.0059V43.7701C0.423585 43.5583 0.423585 43.3465 0.352988 43.1347C0.28239 42.9935 0.141195 42.7817 0 42.7111H1.83554L1.76494 42.7817V42.8523C1.76494 42.9229 1.76494 42.9229 1.76494 42.9229L3.17689 47.0176C3.24749 47.1587 3.31808 47.3705 3.31808 47.5823C3.38868 47.7941 3.45928 48.0059 3.45928 48.2177C3.52988 47.9353 3.52988 47.7235 3.60047 47.5117C3.67107 47.3705 3.67107 47.1587 3.74167 47.0176L5.15362 42.9229V42.8523C5.15362 42.8523 5.15362 42.7817 5.15362 42.7111C5.08302 42.7111 5.08302 42.7111 5.08302 42.7111H6.98916C6.77736 42.7817 6.70677 42.9935 6.63617 43.1347C6.56557 43.3465 6.49497 43.5583 6.49497 43.7701V48.0059C6.49497 48.2177 6.56557 48.4295 6.63617 48.6413C6.70677 48.8531 6.77736 48.9943 6.98916 49.1355H5.22422ZM11.1544 43.6995C11.225 43.5583 11.225 43.4877 11.2956 43.3465C11.2956 43.2759 11.2956 43.1347 11.2956 43.1347C11.2956 43.0641 11.2956 42.9935 11.2956 42.9229C11.225 42.8523 11.1544 42.7817 11.0838 42.7111H12.7782C12.637 42.7817 12.4958 42.9229 12.4252 43.0641C12.284 43.2759 12.2134 43.4171 12.1428 43.5583L10.3778 46.8058V48.0059C10.3778 48.2177 10.3778 48.4295 10.519 48.6413C10.5896 48.8531 10.6602 48.9943 10.8014 49.1355H9.03648C9.17768 48.9943 9.31887 48.7825 9.38947 48.6413C9.46007 48.4295 9.53067 48.2177 9.53067 48.0059V46.8764L7.76573 43.5583C7.69513 43.4171 7.55394 43.2053 7.48334 43.0641C7.34214 42.9229 7.27155 42.7817 7.13035 42.7111H8.89529C8.82469 42.7817 8.75409 42.8523 8.75409 42.9229C8.6835 42.9935 8.6835 43.0641 8.6835 43.1347C8.6835 43.1347 8.6835 43.2759 8.75409 43.3465C8.75409 43.4877 8.82469 43.5583 8.82469 43.6995L9.95425 45.9586L11.1544 43.6995ZM41.7937 42.7111C41.5819 42.7817 41.5114 42.9935 41.4408 43.1347C41.3702 43.3465 41.2996 43.5583 41.2996 43.7701V48.0059C41.2996 48.2177 41.3702 48.4295 41.4408 48.6413C41.5114 48.7825 41.5819 48.9943 41.7937 49.1355H40.0288C40.17 48.9943 40.2406 48.7825 40.3112 48.6413C40.4524 48.4295 40.4524 48.2177 40.4524 48.0059V43.7701C40.4524 43.5583 40.4524 43.3465 40.3112 43.1347C40.2406 42.9935 40.17 42.7817 40.0288 42.7111H41.7937ZM44.4059 42.7111C44.4059 42.7111 44.4059 42.7111 44.3353 42.7111C44.3353 42.7817 44.3353 42.8523 44.3353 42.8523V42.9229L46.1708 46.8058C46.2414 47.0176 46.312 47.2293 46.4532 47.4411C46.5238 47.6529 46.5944 47.8647 46.5944 48.0765C46.5944 47.9353 46.5944 47.7235 46.5944 47.5117C46.5238 47.2999 46.5238 47.0881 46.5238 46.8764V43.7701C46.5238 43.5583 46.5238 43.3465 46.4532 43.1347C46.3826 42.9935 46.2414 42.7817 46.1002 42.7111H47.7945C47.5827 42.7817 47.5121 42.9935 47.4415 43.1347C47.3709 43.3465 47.3003 43.5583 47.3003 43.7701V48.6413C47.3003 48.7825 47.3003 48.8531 47.3003 48.9237C47.3709 48.9943 47.3709 49.0649 47.3709 49.1355H46.1708C46.1708 49.1355 46.1708 49.1355 46.1708 49.0649C46.1708 48.9943 46.1708 48.9943 46.1708 48.9237V48.8531L44.1941 44.5466C44.1235 44.476 44.0529 44.3348 43.9823 44.1231C43.9117 43.9819 43.8411 43.6995 43.6999 43.4171C43.7705 43.5583 43.7705 43.7701 43.7705 43.9113C43.7705 44.1231 43.7705 44.3348 43.7705 44.476V48.0059C43.7705 48.2177 43.8411 48.4295 43.9117 48.6413C43.9823 48.7825 44.1235 48.9943 44.2647 49.1355H42.5703C42.7115 48.9943 42.8527 48.7825 42.9233 48.6413C42.9939 48.4295 43.0645 48.2177 43.0645 48.0059V43.7701C43.0645 43.5583 42.9939 43.3465 42.9233 43.1347C42.8527 42.9935 42.7115 42.7817 42.5703 42.7111H44.4059ZM48.5711 49.1355C48.7123 48.9943 48.8535 48.7825 48.9241 48.6413C48.9947 48.4295 48.9947 48.2177 48.9947 48.0059V43.7701C48.9947 43.5583 48.9947 43.3465 48.9241 43.1347C48.8535 42.9935 48.7123 42.7817 48.5711 42.7111C48.7123 42.7111 48.8535 42.7111 48.9241 42.7111C49.0653 42.7111 49.1359 42.7111 49.2065 42.7111C49.4889 42.7111 49.8419 42.7111 50.2654 42.6405C50.689 42.6405 50.9714 42.6405 51.1126 42.6405C51.748 42.6405 52.2422 42.7817 52.6658 43.0641C53.0188 43.4171 53.1599 43.8407 53.1599 44.476C53.1599 44.829 53.0893 45.1114 52.9482 45.3232C52.8776 45.6056 52.6658 45.8174 52.3834 45.9586C52.1716 46.0998 51.748 46.241 51.1126 46.3822C50.9714 46.3822 50.8302 46.3822 50.7596 46.4528C50.4066 46.5234 50.1243 46.594 50.0537 46.6646C49.9125 46.7352 49.8419 46.947 49.8419 47.1587V48.0059C49.8419 48.2177 49.9125 48.4295 49.9831 48.6413C50.0537 48.7825 50.1948 48.9943 50.336 49.1355H48.5711ZM49.8419 43.8407V45.9586C50.1243 45.8174 50.4772 45.7468 50.9714 45.6056C51.1126 45.6056 51.3244 45.6056 51.395 45.535C51.6774 45.4644 51.8892 45.3938 52.0304 45.182C52.1716 44.9702 52.2422 44.7584 52.2422 44.476C52.2422 44.1231 52.1716 43.7701 51.9598 43.6289C51.748 43.4171 51.395 43.2759 50.9714 43.2759C50.6184 43.2759 50.336 43.3465 50.1243 43.4171C49.9831 43.4877 49.8419 43.6289 49.8419 43.8407ZM54.0071 43.7701C54.0071 43.5583 53.9365 43.3465 53.8659 43.1347C53.7953 42.9935 53.6541 42.7817 53.5129 42.7111H55.2779C55.1367 42.7817 55.0661 42.9935 54.9249 43.1347C54.8543 43.3465 54.8543 43.5583 54.8543 43.7701V46.8764C54.8543 47.5117 54.9249 47.9353 55.1367 48.1471C55.3485 48.3589 55.7015 48.5001 56.1956 48.5001C56.6898 48.5001 57.0428 48.3589 57.2546 48.1471C57.4664 47.9353 57.537 47.5117 57.537 46.8764V43.7701C57.537 43.5583 57.4664 43.3465 57.3958 43.1347C57.3252 42.9935 57.2546 42.7817 57.1134 42.7111H58.8077C58.6666 42.7817 58.5254 42.9935 58.4548 43.1347C58.3842 43.3465 58.3136 43.5583 58.3136 43.7701V46.8058C58.3136 47.2999 58.3136 47.6529 58.243 47.8647C58.243 48.1471 58.1018 48.3589 58.0312 48.5001C57.8194 48.7825 57.6076 48.9237 57.3252 49.0649C56.9722 49.2061 56.6192 49.2061 56.125 49.2061C55.7015 49.2061 55.3485 49.2061 54.9955 49.0649C54.7131 48.9237 54.5013 48.7825 54.2895 48.5001C54.2189 48.3589 54.1483 48.1471 54.0777 47.8647C54.0071 47.6529 54.0071 47.2999 54.0071 46.8058V43.7701ZM62.1258 48.0059C62.1258 48.2177 62.1964 48.4295 62.267 48.6413C62.3376 48.8531 62.4082 48.9943 62.5494 49.1355H60.8551C60.9963 48.9943 61.0669 48.8531 61.1375 48.6413C61.2081 48.4295 61.2787 48.2177 61.2787 48.0059V43.9113C61.2787 43.6995 61.2081 43.5583 61.1375 43.4877C61.0669 43.3465 60.9257 43.3465 60.7845 43.3465C60.4315 43.3465 60.1491 43.4171 59.8667 43.6995C59.6549 43.9113 59.4431 44.3348 59.3019 44.7584V42.4287C59.3725 42.4993 59.4431 42.5699 59.5137 42.6405C59.5843 42.6405 59.7255 42.7111 59.7961 42.7111H63.6084C63.7496 42.7111 63.8202 42.6405 63.8908 42.6405C63.9614 42.5699 64.032 42.4993 64.1026 42.4287V44.7584C63.9614 44.3348 63.8202 43.9819 63.5378 43.6995C63.2554 43.4171 62.973 43.3465 62.62 43.3465C62.4788 43.3465 62.3376 43.3465 62.267 43.4877C62.1964 43.5583 62.1258 43.6995 62.1258 43.9113V48.0059Z" fill="#039441"/>
<path d="M17.508 46.5231C17.6492 46.5231 17.7904 46.5231 17.9316 46.5231C18.0728 46.5231 18.214 46.5231 18.3552 46.5231C18.4964 46.5231 18.567 46.5231 18.7082 46.5231C18.8494 46.5231 18.9906 46.5231 19.0612 46.5231L18.4258 43.7698L17.508 46.5231ZM17.155 47.7232C17.0844 47.935 17.0844 48.0762 17.0844 48.1468C17.0138 48.2174 17.0138 48.3586 17.0138 48.4292C17.0138 48.5704 17.0844 48.7116 17.0844 48.7822C17.155 48.9234 17.155 48.994 17.2962 49.1352H15.0371C15.1783 48.994 15.3195 48.7822 15.4607 48.5704C15.6019 48.3586 15.6725 48.0762 15.8137 47.7938L17.155 43.205C17.2256 43.205 17.2256 43.205 17.2256 43.1344C17.2256 43.1344 17.2256 43.1344 17.2256 43.0638C17.2256 42.9932 17.2256 42.9226 17.155 42.852C17.155 42.7814 17.0844 42.7108 17.0844 42.7108H19.9083C19.9083 42.7814 19.8377 42.852 19.8377 42.852C19.8377 42.9226 19.7671 42.9932 19.7671 43.0638C19.7671 43.1344 19.8377 43.1344 19.8377 43.205L21.0379 47.7938C21.1085 48.1468 21.1791 48.4292 21.3203 48.5704C21.3909 48.7822 21.4615 48.994 21.6027 49.1352H19.2024C19.273 48.994 19.3436 48.9234 19.3436 48.7822C19.4142 48.7116 19.4142 48.4998 19.4142 48.3586C19.4142 48.288 19.4142 48.2174 19.4142 48.1468C19.4142 48.0762 19.4142 47.935 19.3436 47.7232C19.2024 47.7232 19.0612 47.7232 18.8494 47.7232C18.6376 47.7232 18.4964 47.7232 18.2846 47.7232C18.0728 47.7232 17.861 47.7232 17.6492 47.7232C17.508 47.7232 17.2962 47.7232 17.155 47.7232ZM26.5445 45.2523C26.1915 44.7581 25.9091 44.4052 25.6267 44.1934C25.4149 43.9816 25.1326 43.911 24.8502 43.911C24.4972 43.911 24.2148 44.0522 24.003 44.4052C23.8618 44.7581 23.7912 45.3935 23.7912 46.1701C23.7912 46.8055 23.7912 47.2291 23.9324 47.5114C24.003 47.7938 24.2148 47.8644 24.4266 47.8644C24.6384 47.8644 24.7796 47.7938 24.9208 47.6526C25.062 47.5114 25.1326 47.3703 25.1326 47.1585V46.6643C25.1326 46.4525 25.062 46.3113 24.9914 46.0995C24.9208 45.9583 24.8502 45.8171 24.709 45.6759H27.1093C27.0387 45.8171 26.9681 45.9583 26.8975 46.0995C26.8269 46.3113 26.8269 46.4525 26.8269 46.6643V49.347C26.6857 49.2058 26.5445 49.1352 26.4033 49.0646C26.3327 48.994 26.1915 48.994 26.0503 48.994C25.9091 48.994 25.6973 48.994 25.3443 49.1352C24.9914 49.2058 24.6384 49.2058 24.4266 49.2058C23.5794 49.2058 22.944 48.994 22.5204 48.4292C22.0969 47.8644 21.8851 47.0879 21.8851 46.0289C21.8851 44.9699 22.0969 44.1228 22.591 43.4874C23.0146 42.852 23.7206 42.5696 24.5678 42.5696C24.7796 42.5696 25.062 42.5696 25.3443 42.6402C25.6267 42.7108 25.8385 42.7108 25.9091 42.7108C25.9797 42.7108 26.1209 42.7108 26.1915 42.6402C26.3327 42.6402 26.4033 42.5696 26.5445 42.499V45.2523ZM27.6741 49.1352C27.8153 48.994 27.8859 48.8528 27.9565 48.641C28.0271 48.4292 28.0977 48.2174 28.0977 48.0056V43.7698C28.0977 43.558 28.0271 43.3462 27.9565 43.1344C27.8859 42.9932 27.8153 42.7814 27.6741 42.7108C27.7447 42.7108 27.8153 42.7108 27.9565 42.7108C28.0271 42.7108 28.2388 42.7108 28.38 42.7108C28.733 42.7108 29.1566 42.7108 29.6508 42.6402C30.145 42.6402 30.5686 42.6402 30.7098 42.6402C31.5569 42.6402 32.1217 42.7814 32.4747 43.0638C32.8983 43.3462 33.1101 43.8404 33.1101 44.4052C33.1101 44.7581 32.9689 45.1111 32.7571 45.3229C32.5453 45.6053 32.1923 45.7465 31.6981 45.8877C32.0511 46.0289 32.2629 46.1701 32.4747 46.3819C32.6865 46.5937 32.8277 46.8055 32.8983 47.0879C32.9689 47.2291 32.9689 47.4409 32.9689 47.6526C33.0395 47.935 33.0395 48.0762 33.0395 48.2174C33.1101 48.3586 33.1807 48.4998 33.2513 48.7116C33.3219 48.8528 33.3925 48.994 33.5337 49.1352H31.5569C31.4863 49.0646 31.4157 48.994 31.3451 48.9234C31.2745 48.8528 31.2745 48.7116 31.2039 48.641C31.2039 48.5704 31.2039 48.4998 31.2039 48.4292C31.2039 48.4292 31.2039 48.3586 31.2039 48.288C31.2039 48.288 31.2039 48.2174 31.2039 48.1468C31.2039 48.0762 31.2039 48.0056 31.2039 47.935C31.2039 47.8644 31.2039 47.7938 31.2039 47.7232C31.2039 47.6526 31.2039 47.582 31.2039 47.5114C31.1333 47.1585 30.9922 46.9467 30.851 46.8055C30.6392 46.6643 30.3568 46.5937 29.9332 46.5937H29.8626V48.0056C29.8626 48.2174 29.8626 48.4292 29.9332 48.641C30.0038 48.8528 30.145 48.994 30.2862 49.1352H27.6741ZM29.8626 45.3229H29.9332C30.0038 45.3229 30.0744 45.3229 30.145 45.3229C30.5686 45.3229 30.851 45.2523 30.9922 45.1111C31.2039 45.0405 31.2745 44.8287 31.2745 44.5464C31.2745 44.3346 31.2039 44.1228 31.0628 44.0522C30.9216 43.911 30.7098 43.8404 30.498 43.8404C30.2862 43.8404 30.0744 43.911 30.0038 43.9816C29.8626 44.0522 29.8626 44.1934 29.8626 44.4052V45.3229ZM36.5694 42.7108C36.4282 42.7814 36.287 42.9932 36.2164 43.1344C36.1458 43.3462 36.1458 43.558 36.1458 43.7698V48.0056C36.1458 48.2174 36.1458 48.4292 36.2164 48.641C36.287 48.8528 36.4282 48.994 36.5694 49.1352H33.9572C34.0984 48.994 34.169 48.8528 34.2396 48.641C34.3102 48.4292 34.3808 48.2174 34.3808 48.0056V43.7698C34.3808 43.558 34.3102 43.3462 34.2396 43.1344C34.169 42.9932 34.0984 42.7814 33.9572 42.7108H36.5694Z" fill="#D5C95D"/>
<path fill-rule="evenodd" clip-rule="evenodd" d="M23.7217 29.0857L25.9808 29.1563V21.6024C27.2516 22.2377 32.617 27.8855 34.0289 28.7327C34.9467 28.1679 42.1476 21.8847 42.8536 21.5318V29.1563H45.1127L45.1833 13.9072C43.9126 14.7544 38.6178 20.0492 36.9234 21.4612C35.8645 22.3789 35.1585 23.4379 34.0289 24.1439C32.264 23.0849 24.8512 14.472 23.7217 13.9072V29.0857Z" fill="#039441"/>
<path fill-rule="evenodd" clip-rule="evenodd" d="M31.2754 20.756C31.9108 21.2502 32.1932 21.7444 33.0403 22.3798C33.4639 21.462 33.6051 21.2502 34.0993 20.2619C34.4523 20.9678 34.8053 21.7444 35.1583 22.3798L36.9938 20.6148L34.0287 13.6963L31.2754 20.756Z" fill="#D5C95D"/>
<path fill-rule="evenodd" clip-rule="evenodd" d="M37.1348 27.1797L37.6995 28.4504C37.7701 28.5916 37.7701 28.6622 37.9819 29.0858L40.7352 29.1564C40.1705 27.8151 39.7469 26.6149 39.3233 25.4854C38.5467 25.9089 37.5584 26.6149 37.1348 27.1797Z" fill="#D5C95D"/>
<path fill-rule="evenodd" clip-rule="evenodd" d="M28.0986 29.1568H30.0754H30.9225L31.4873 27.1801C30.5695 26.6859 30.2166 26.2623 29.3694 25.627L28.0986 29.1568Z" fill="#D5C95D"/>
<path fill-rule="evenodd" clip-rule="evenodd" d="M44.2651 12.6372C44.2651 12.2136 44.1239 11.5076 44.4769 11.084C44.5475 10.9428 44.4769 11.0134 44.6181 10.9428C44.6887 12.0018 44.4769 11.9312 45.1123 12.7078C45.3947 12.6372 45.8183 12.2842 45.9594 12.0724C46.1712 11.7194 46.03 11.1546 45.8888 10.8016C45.7477 10.3075 45.1123 9.1073 44.8299 8.89551C44.4063 9.31909 43.9121 9.95447 43.5591 10.6604C43.1355 11.6488 43.2767 12.4254 44.2651 12.6372Z" fill="#D5C95D"/>
<path fill-rule="evenodd" clip-rule="evenodd" d="M45.8892 14.5429C45.9598 14.4723 46.0304 14.3311 46.101 14.2605C46.1716 14.1193 46.2422 13.9781 46.3128 13.9075C46.5246 13.7663 46.7364 13.5545 47.0894 13.5545C46.9482 13.9781 46.454 13.9781 46.3834 15.1783C46.6658 15.3195 47.3012 15.2489 47.5836 15.1077C48.2189 14.7547 48.6425 12.9192 48.6425 12.1426C47.3012 12.2838 44.6891 12.9192 45.8892 14.5429Z" fill="#D5C95D"/>
<path fill-rule="evenodd" clip-rule="evenodd" d="M42.9945 15.1783C42.9945 14.7547 42.9239 14.4723 42.7827 14.1899C42.6415 13.9781 42.3591 13.6957 42.2885 13.5545C42.7121 13.5545 43.0651 13.9075 43.2769 14.1899C43.4181 14.3311 43.4181 14.4723 43.5593 14.5429C44.6182 12.8486 41.9355 12.2838 40.7354 12.1426C40.7354 12.8486 41.0177 13.8369 41.2295 14.3311C41.3707 14.6841 41.5825 14.9665 41.7943 15.1077C42.0767 15.2489 42.7121 15.3195 42.9945 15.1783Z" fill="#D5C95D"/>
<path fill-rule="evenodd" clip-rule="evenodd" d="M17.7207 10.8014C17.1559 11.225 17.2971 11.2956 16.5205 11.6486C15.9558 5.8596 17.0853 9.03648 13.6966 3.74167C13.3437 3.10629 12.9201 1.83554 12.4965 1.20016C10.7315 3.31808 8.68422 8.04812 11.4375 10.9426C11.9317 11.5074 13.2731 12.637 14.1202 12.7782C13.8378 12.0016 13.5554 11.3662 13.3437 10.4484C13.1319 9.67186 12.9201 8.5423 13.0613 7.83633C13.2025 7.41274 13.1319 7.62453 13.2025 7.41274C14.4732 12.7076 14.8262 8.4717 14.7556 15.0373C14.7556 18.0024 14.9674 20.7557 15.744 23.4384C16.8029 26.8977 18.7797 29.8628 21.533 31.8395L24.5687 33.7456C20.7564 33.322 15.3204 30.004 13.3437 28.239C11.7905 26.8271 10.7315 25.6975 9.39019 24.0032C8.68422 23.0148 6.70749 19.9791 6.4251 18.7083C6.3545 21.1793 9.249 26.2623 10.9433 28.3802C13.1319 31.1335 15.8852 33.322 18.9915 34.9458C21.18 36.1459 23.6509 36.9225 26.3336 37.3461C32.052 38.2639 37.9116 36.8519 42.1474 34.4516C44.4066 33.1102 47.3011 30.8511 48.7836 28.8744C49.5602 27.7448 51.2545 25.8387 51.6781 24.4267C52.9489 24.4267 53.443 24.1444 54.5726 24.0032C52.8783 24.9915 52.2429 24.9209 51.8193 25.3445C53.2313 25.6975 54.0078 26.5447 55.7022 25.3445C56.4787 24.7797 57.3259 23.5796 57.7495 22.3088C55.6316 22.6618 54.2196 22.1676 52.4547 23.0148C52.5959 22.3794 52.5253 22.5912 53.3019 22.2382C53.7254 22.0264 54.0078 21.9558 54.4314 21.6734C57.4671 19.5555 55.7022 15.5315 55.208 13.6253L54.502 14.5431C53.6548 15.8138 48.713 19.2025 50.8309 22.097C51.8899 21.5322 52.5959 20.1909 53.2313 19.1319L53.5842 18.5672C53.443 20.1203 50.6191 24.2856 49.4896 25.4857C44.6184 30.7099 38.4058 34.2398 30.8518 34.381C29.3693 34.381 28.0279 33.1808 27.1102 32.4749C23.5097 30.004 18.7797 25.5563 16.9441 20.5439C15.744 17.367 16.0264 14.1195 17.8619 12.0016C19.1327 10.6602 20.3328 7.34214 22.9449 6.07139C21.9566 7.90692 19.9798 10.2366 19.768 13.1311C22.9449 13.0605 24.7805 10.7308 25.7688 8.25991C26.1924 6.91856 26.5454 5.36541 26.969 3.95346C27.7455 0.917768 27.9573 1.55315 28.5927 0C24.8511 0.211793 19.415 1.97673 18.0031 5.789C17.2971 7.76573 17.5795 8.82469 17.7207 10.8014Z" fill="#039441"/>
</g>
<defs>
<clipPath id="clip0_533_7207">
<rect width="64.1029" height="50" fill="white"/>
</clipPath>
</defs>
</svg>
